<?xml version="1.0" encoding="UTF-8"?>
<svg width="64" height="64" viewBox="0 0 64 64" fill="none" xmlns="http://www.w3.org/2000/svg">
  <path d="M43.1421 20.8579C36.3316 14.0474 25.6684 14.0474 18.8579 20.8579C12.0474 27.6684 12.0474 38.3316 18.8579 45.1421C25.6684 51.9526 36.3316 51.9526 43.1421 45.1421C43.8954 44.3888 44.5488 43.5747 45.1066 42.7169C40.1056 44.7009 34.1748 43.8799 29.8995 39.6046C25.1792 34.8842 24.743 27.9553 27.9395 22.7169C29.0507 21.1219 30.4307 19.7861 31.9999 18.7289C35.1943 16.6527 39.0685 16.0142 42.7169 16.8934C41.8591 18.0072 41.0449 18.6605 43.1421 20.8579Z" fill="#5C6BC0" stroke="#3949AB" stroke-width="2"/>
  <circle cx="25" cy="25" r="1.5" fill="white"/>
  <circle cx="36" cy="32" r="1" fill="white"/>
  <circle cx="30" cy="39" r="1" fill="white"/>
</svg>
