<?xml version="1.0" encoding="UTF-8"?>
<svg width="64" height="64" viewBox="0 0 64 64" fill="none" xmlns="http://www.w3.org/2000/svg">
  <!-- Sun -->
  <circle cx="26" cy="22" r="10" fill="#FFD700" stroke="#FFA500" stroke-width="2"/>
  <!-- Cloud -->
  <path d="M52 38C52 45.732 45.732 52 38 52H18C11.373 52 6 46.627 6 40C6 33.373 11.373 28 18 28C18.743 28 19.47 28.069 20.177 28.202C21.858 21.07 28.252 16 35.815 16C38.151 16 40.368 16.483 42.374 17.357C42.127 18.204 42 19.09 42 20C42 24.418 45.582 28 50 28C51.016 28 51.991 27.828 52.897 27.512C53.614 29.175 54 31.031 54 33C54 35.097 53.29 37.064 52 38.55V38Z" fill="#E6E6E6" stroke="#AAAAAA" stroke-width="2"/>
</svg>
