<?xml version="1.0" encoding="UTF-8"?>
<svg width="64" height="64" viewBox="0 0 64 64" fill="none" xmlns="http://www.w3.org/2000/svg">
  <!-- Moon -->
  <path d="M34 10C29.7565 10 25.686 11.6857 22.6863 14.6863C19.6857 17.686 18 21.7565 18 26C18 30.2435 19.6857 34.314 22.6863 37.3137C25.686 40.3143 29.7565 42 34 42C35.0899 42 36.1693 41.8797 37.2169 41.6434C34.1428 44.7009 29.1748 45.8799 24.8995 41.6046C20.1792 36.8842 19.743 29.9553 22.9395 24.7169C24.0507 23.1219 25.4307 21.7861 26.9999 20.7289C30.1943 18.6527 34.0685 18.0142 37.7169 18.8934C35.9423 13.4525 30.3716 10 34 10Z" fill="#5C6BC0" stroke="#3949AB" stroke-width="2"/>
  <!-- Cloud -->
  <path d="M52 38C52 45.732 45.732 52 38 52H18C11.373 52 6 46.627 6 40C6 33.373 11.373 28 18 28C18.743 28 19.47 28.069 20.177 28.202C21.858 21.07 28.252 16 35.815 16C38.151 16 40.368 16.483 42.374 17.357C42.127 18.204 42 19.09 42 20C42 24.418 45.582 28 50 28C51.016 28 51.991 27.828 52.897 27.512C53.614 29.175 54 31.031 54 33C54 35.097 53.29 37.064 52 38.55V38Z" fill="#E6E6E6" stroke="#AAAAAA" stroke-width="2"/>
</svg>
